G75*
%MOIN*%
%OFA0B0*%
%FSLAX25Y25*%
%IPPOS*%
%LPD*%
%AMOC8*
5,1,8,0,0,1.08239X$1,22.5*
%
%ADD10C,0.00000*%
%ADD11R,0.03937X0.04331*%
%ADD12R,0.07087X0.05512*%
%ADD13R,0.07400X0.07400*%
%ADD14C,0.07400*%
%ADD15R,0.03150X0.03150*%
%ADD16R,0.04800X0.08800*%
%ADD17R,0.14173X0.08661*%
%ADD18C,0.01600*%
%ADD19C,0.03200*%
D10*
X0001800Y0045107D02*
X0001800Y0088414D01*
X0092351Y0088414D01*
X0092351Y0045107D01*
X0001800Y0045107D01*
D11*
X0056300Y0061954D03*
X0056300Y0068646D03*
X0056300Y0074454D03*
X0056300Y0081146D03*
X0064300Y0081146D03*
X0064300Y0074454D03*
D12*
X0063800Y0062493D03*
X0063800Y0049107D03*
D13*
X0080800Y0061800D03*
X0080800Y0083300D03*
X0013800Y0056800D03*
D14*
X0014800Y0066800D03*
X0013800Y0076800D03*
X0080800Y0072300D03*
X0080800Y0050800D03*
D15*
X0056300Y0048847D03*
X0056300Y0054753D03*
D16*
X0047400Y0076500D03*
X0038300Y0076500D03*
X0029200Y0076500D03*
D17*
X0038300Y0052099D03*
D18*
X0044062Y0058230D02*
X0030468Y0058230D01*
X0029413Y0057176D01*
X0029413Y0047023D01*
X0029529Y0046907D01*
X0003600Y0046907D01*
X0003600Y0086614D01*
X0037306Y0086614D01*
X0036918Y0086226D01*
X0035418Y0084726D01*
X0034900Y0083476D01*
X0034900Y0082446D01*
X0034100Y0081646D01*
X0034100Y0071354D01*
X0034900Y0070554D01*
X0034900Y0068124D01*
X0035418Y0066874D01*
X0036374Y0065918D01*
X0044062Y0058230D01*
X0042945Y0059346D02*
X0019300Y0059346D01*
X0019300Y0057748D02*
X0029986Y0057748D01*
X0029413Y0056149D02*
X0019300Y0056149D01*
X0019300Y0056600D02*
X0014000Y0056600D01*
X0014000Y0057000D01*
X0019300Y0057000D01*
X0019300Y0060737D01*
X0019177Y0061195D01*
X0018940Y0061605D01*
X0018605Y0061940D01*
X0018195Y0062177D01*
X0018006Y0062228D01*
X0019178Y0063400D01*
X0020176Y0063400D01*
X0021426Y0063918D01*
X0027808Y0070300D01*
X0032346Y0070300D01*
X0033400Y0071354D01*
X0033400Y0081646D01*
X0032346Y0082700D01*
X0026054Y0082700D01*
X0025000Y0081646D01*
X0025000Y0077108D01*
X0018635Y0070743D01*
X0017915Y0071463D01*
X0016601Y0072007D01*
X0016915Y0072137D01*
X0018463Y0073684D01*
X0019300Y0075706D01*
X0019300Y0077894D01*
X0018463Y0079915D01*
X0016915Y0081463D01*
X0014894Y0082300D01*
X0012706Y0082300D01*
X0010684Y0081463D01*
X0009137Y0079915D01*
X0008300Y0077894D01*
X0008300Y0075706D01*
X0009137Y0073684D01*
X0010684Y0072137D01*
X0011999Y0071593D01*
X0011684Y0071463D01*
X0010137Y0069915D01*
X0009300Y0067894D01*
X0009300Y0065706D01*
X0010137Y0063684D01*
X0011522Y0062300D01*
X0009863Y0062300D01*
X0009405Y0062177D01*
X0008995Y0061940D01*
X0008660Y0061605D01*
X0008423Y0061195D01*
X0008300Y0060737D01*
X0008300Y0057000D01*
X0013600Y0057000D01*
X0013600Y0056600D01*
X0014000Y0056600D01*
X0014000Y0051300D01*
X0017737Y0051300D01*
X0018195Y0051423D01*
X0018605Y0051660D01*
X0018940Y0051995D01*
X0019177Y0052405D01*
X0019300Y0052863D01*
X0019300Y0056600D01*
X0019300Y0054551D02*
X0029413Y0054551D01*
X0029413Y0052952D02*
X0019300Y0052952D01*
X0017938Y0051354D02*
X0029413Y0051354D01*
X0029413Y0049755D02*
X0003600Y0049755D01*
X0003600Y0051354D02*
X0009662Y0051354D01*
X0009863Y0051300D02*
X0013600Y0051300D01*
X0013600Y0056600D01*
X0008300Y0056600D01*
X0008300Y0052863D01*
X0008423Y0052405D01*
X0008660Y0051995D01*
X0008995Y0051660D01*
X0009405Y0051423D01*
X0009863Y0051300D01*
X0008300Y0052952D02*
X0003600Y0052952D01*
X0003600Y0054551D02*
X0008300Y0054551D01*
X0008300Y0056149D02*
X0003600Y0056149D01*
X0003600Y0057748D02*
X0008300Y0057748D01*
X0008300Y0059346D02*
X0003600Y0059346D01*
X0003600Y0060945D02*
X0008356Y0060945D01*
X0011278Y0062543D02*
X0003600Y0062543D01*
X0003600Y0064142D02*
X0009948Y0064142D01*
X0009300Y0065740D02*
X0003600Y0065740D01*
X0003600Y0067339D02*
X0009300Y0067339D01*
X0009732Y0068937D02*
X0003600Y0068937D01*
X0003600Y0070536D02*
X0010758Y0070536D01*
X0010691Y0072134D02*
X0003600Y0072134D01*
X0003600Y0073733D02*
X0009117Y0073733D01*
X0008455Y0075332D02*
X0003600Y0075332D01*
X0003600Y0076930D02*
X0008300Y0076930D01*
X0008563Y0078529D02*
X0003600Y0078529D01*
X0003600Y0080127D02*
X0009349Y0080127D01*
X0011319Y0081726D02*
X0003600Y0081726D01*
X0003600Y0083324D02*
X0034900Y0083324D01*
X0035614Y0084923D02*
X0003600Y0084923D01*
X0003600Y0086521D02*
X0037213Y0086521D01*
X0034180Y0081726D02*
X0033320Y0081726D01*
X0033400Y0080127D02*
X0034100Y0080127D01*
X0034100Y0078529D02*
X0033400Y0078529D01*
X0033400Y0076930D02*
X0034100Y0076930D01*
X0034100Y0075332D02*
X0033400Y0075332D01*
X0033400Y0073733D02*
X0034100Y0073733D01*
X0034100Y0072134D02*
X0033400Y0072134D01*
X0032582Y0070536D02*
X0034900Y0070536D01*
X0034900Y0068937D02*
X0026446Y0068937D01*
X0024847Y0067339D02*
X0035225Y0067339D01*
X0036551Y0065740D02*
X0023249Y0065740D01*
X0021650Y0064142D02*
X0038150Y0064142D01*
X0039748Y0062543D02*
X0018322Y0062543D01*
X0019244Y0060945D02*
X0041347Y0060945D01*
X0046168Y0065740D02*
X0052681Y0065740D01*
X0052654Y0065786D02*
X0052891Y0065376D01*
X0052967Y0065300D01*
X0052531Y0064864D01*
X0052531Y0059377D01*
X0041700Y0070208D01*
X0041700Y0070554D01*
X0042500Y0071354D01*
X0042500Y0080900D01*
X0043200Y0080900D01*
X0043200Y0076900D01*
X0047000Y0076900D01*
X0047000Y0076100D01*
X0047800Y0076100D01*
X0047800Y0076900D01*
X0051600Y0076900D01*
X0051600Y0080900D01*
X0051738Y0080900D01*
X0052531Y0080107D01*
X0052531Y0078236D01*
X0052967Y0077800D01*
X0052891Y0077724D01*
X0052654Y0077314D01*
X0052531Y0076856D01*
X0052531Y0074638D01*
X0056116Y0074638D01*
X0056116Y0074269D01*
X0056484Y0074269D01*
X0056484Y0068831D01*
X0056116Y0068831D01*
X0056116Y0072612D01*
X0056116Y0074269D01*
X0052531Y0074269D01*
X0052531Y0072051D01*
X0052654Y0071593D01*
X0052679Y0071550D01*
X0052654Y0071507D01*
X0052531Y0071049D01*
X0052531Y0068831D01*
X0056116Y0068831D01*
X0056116Y0068462D01*
X0052531Y0068462D01*
X0052531Y0066244D01*
X0052654Y0065786D01*
X0052531Y0064142D02*
X0047766Y0064142D01*
X0049365Y0062543D02*
X0052531Y0062543D01*
X0052531Y0060945D02*
X0050963Y0060945D01*
X0052531Y0067339D02*
X0044569Y0067339D01*
X0042971Y0068937D02*
X0052531Y0068937D01*
X0052531Y0070536D02*
X0050691Y0070536D01*
X0050495Y0070423D02*
X0050905Y0070660D01*
X0051240Y0070995D01*
X0051477Y0071405D01*
X0051600Y0071863D01*
X0051600Y0076100D01*
X0047800Y0076100D01*
X0047800Y0070300D01*
X0050037Y0070300D01*
X0050495Y0070423D01*
X0051600Y0072134D02*
X0052531Y0072134D01*
X0052531Y0073733D02*
X0051600Y0073733D01*
X0051600Y0075332D02*
X0052531Y0075332D01*
X0052551Y0076930D02*
X0051600Y0076930D01*
X0051600Y0078529D02*
X0052531Y0078529D01*
X0052511Y0080127D02*
X0051600Y0080127D01*
X0047000Y0076100D02*
X0047000Y0070300D01*
X0044763Y0070300D01*
X0044305Y0070423D01*
X0043895Y0070660D01*
X0043560Y0070995D01*
X0043323Y0071405D01*
X0043200Y0071863D01*
X0043200Y0076100D01*
X0047000Y0076100D01*
X0047000Y0075332D02*
X0047800Y0075332D01*
X0047800Y0073733D02*
X0047000Y0073733D01*
X0047000Y0072134D02*
X0047800Y0072134D01*
X0047800Y0070536D02*
X0047000Y0070536D01*
X0044109Y0070536D02*
X0041700Y0070536D01*
X0042500Y0072134D02*
X0043200Y0072134D01*
X0043200Y0073733D02*
X0042500Y0073733D01*
X0042500Y0075332D02*
X0043200Y0075332D01*
X0043200Y0076930D02*
X0042500Y0076930D01*
X0042500Y0078529D02*
X0043200Y0078529D01*
X0043200Y0080127D02*
X0042500Y0080127D01*
X0056484Y0074638D02*
X0060068Y0074638D01*
X0060068Y0076856D01*
X0059946Y0077314D01*
X0059709Y0077724D01*
X0059687Y0077746D01*
X0060913Y0077746D01*
X0060891Y0077724D01*
X0060654Y0077314D01*
X0060531Y0076856D01*
X0060531Y0074638D01*
X0064116Y0074638D01*
X0064116Y0074269D01*
X0064484Y0074269D01*
X0064484Y0070488D01*
X0066505Y0070488D01*
X0066963Y0070611D01*
X0067374Y0070848D01*
X0067709Y0071183D01*
X0067946Y0071593D01*
X0068068Y0072051D01*
X0068068Y0074269D01*
X0064484Y0074269D01*
X0064484Y0074638D01*
X0068068Y0074638D01*
X0068068Y0076856D01*
X0067946Y0077314D01*
X0067709Y0077724D01*
X0067633Y0077800D01*
X0068068Y0078236D01*
X0068068Y0079900D01*
X0075300Y0079900D01*
X0075300Y0078854D01*
X0076354Y0077800D01*
X0085246Y0077800D01*
X0086300Y0078854D01*
X0086300Y0086614D01*
X0090551Y0086614D01*
X0090551Y0046907D01*
X0084685Y0046907D01*
X0084995Y0047217D01*
X0085504Y0047917D01*
X0085897Y0048689D01*
X0086165Y0049512D01*
X0086300Y0050367D01*
X0086300Y0050600D01*
X0081000Y0050600D01*
X0081000Y0051000D01*
X0080600Y0051000D01*
X0080600Y0056300D01*
X0080367Y0056300D01*
X0079512Y0056165D01*
X0078689Y0055897D01*
X0077917Y0055504D01*
X0077217Y0054995D01*
X0076605Y0054383D01*
X0076096Y0053683D01*
X0075703Y0052911D01*
X0075435Y0052088D01*
X0075300Y0051233D01*
X0075300Y0051000D01*
X0080600Y0051000D01*
X0080600Y0050600D01*
X0075300Y0050600D01*
X0075300Y0050367D01*
X0075435Y0049512D01*
X0075703Y0048689D01*
X0076096Y0047917D01*
X0076605Y0047217D01*
X0076915Y0046907D01*
X0069143Y0046907D01*
X0069143Y0048529D01*
X0064378Y0048529D01*
X0064378Y0049685D01*
X0069143Y0049685D01*
X0069143Y0052100D01*
X0069021Y0052558D01*
X0068784Y0052968D01*
X0068449Y0053303D01*
X0068038Y0053540D01*
X0067580Y0053663D01*
X0064378Y0053663D01*
X0064378Y0049685D01*
X0063222Y0049685D01*
X0063222Y0053663D01*
X0060020Y0053663D01*
X0059675Y0053571D01*
X0059675Y0054016D01*
X0059700Y0054076D01*
X0059700Y0057937D01*
X0068089Y0057937D01*
X0068552Y0058400D01*
X0075300Y0058400D01*
X0075300Y0057354D01*
X0076354Y0056300D01*
X0085246Y0056300D01*
X0086300Y0057354D01*
X0086300Y0066246D01*
X0085246Y0067300D01*
X0083102Y0067300D01*
X0083683Y0067596D01*
X0084383Y0068105D01*
X0084995Y0068717D01*
X0085504Y0069417D01*
X0085897Y0070189D01*
X0086165Y0071012D01*
X0086300Y0071867D01*
X0086300Y0072100D01*
X0081000Y0072100D01*
X0081000Y0072500D01*
X0080600Y0072500D01*
X0080600Y0077800D01*
X0080367Y0077800D01*
X0079512Y0077665D01*
X0078689Y0077397D01*
X0077917Y0077004D01*
X0077217Y0076495D01*
X0076605Y0075883D01*
X0076096Y0075183D01*
X0075703Y0074411D01*
X0075435Y0073588D01*
X0075300Y0072733D01*
X0075300Y0072500D01*
X0080600Y0072500D01*
X0080600Y0072100D01*
X0075300Y0072100D01*
X0075300Y0071867D01*
X0075435Y0071012D01*
X0075703Y0070189D01*
X0076096Y0069417D01*
X0076605Y0068717D01*
X0077217Y0068105D01*
X0077917Y0067596D01*
X0078498Y0067300D01*
X0076354Y0067300D01*
X0075300Y0066246D01*
X0075300Y0065200D01*
X0069143Y0065200D01*
X0069143Y0065994D01*
X0068089Y0067049D01*
X0060068Y0067049D01*
X0060068Y0068462D01*
X0056484Y0068462D01*
X0056484Y0068831D01*
X0060068Y0068831D01*
X0060068Y0071049D01*
X0059946Y0071507D01*
X0059921Y0071550D01*
X0059946Y0071593D01*
X0060068Y0072051D01*
X0060068Y0074269D01*
X0056484Y0074269D01*
X0056484Y0074638D01*
X0056484Y0073733D02*
X0056116Y0073733D01*
X0056116Y0072134D02*
X0056484Y0072134D01*
X0056484Y0070536D02*
X0056116Y0070536D01*
X0056116Y0068937D02*
X0056484Y0068937D01*
X0060068Y0068937D02*
X0076445Y0068937D01*
X0075590Y0070536D02*
X0066684Y0070536D01*
X0068068Y0072134D02*
X0080600Y0072134D01*
X0081000Y0072134D02*
X0090551Y0072134D01*
X0090551Y0070536D02*
X0086010Y0070536D01*
X0085155Y0068937D02*
X0090551Y0068937D01*
X0090551Y0067339D02*
X0083178Y0067339D01*
X0086300Y0065740D02*
X0090551Y0065740D01*
X0090551Y0064142D02*
X0086300Y0064142D01*
X0086300Y0062543D02*
X0090551Y0062543D01*
X0090551Y0060945D02*
X0086300Y0060945D01*
X0086300Y0059346D02*
X0090551Y0059346D01*
X0090551Y0057748D02*
X0086300Y0057748D01*
X0084383Y0054995D02*
X0083683Y0055504D01*
X0082911Y0055897D01*
X0082088Y0056165D01*
X0081233Y0056300D01*
X0081000Y0056300D01*
X0081000Y0051000D01*
X0086300Y0051000D01*
X0086300Y0051233D01*
X0086165Y0052088D01*
X0085897Y0052911D01*
X0085504Y0053683D01*
X0084995Y0054383D01*
X0084383Y0054995D01*
X0084827Y0054551D02*
X0090551Y0054551D01*
X0090551Y0056149D02*
X0082135Y0056149D01*
X0081000Y0056149D02*
X0080600Y0056149D01*
X0079465Y0056149D02*
X0059700Y0056149D01*
X0059700Y0054551D02*
X0076773Y0054551D01*
X0075724Y0052952D02*
X0068793Y0052952D01*
X0069143Y0051354D02*
X0075319Y0051354D01*
X0075397Y0049755D02*
X0069143Y0049755D01*
X0069143Y0048157D02*
X0075974Y0048157D01*
X0080600Y0051354D02*
X0081000Y0051354D01*
X0081000Y0052952D02*
X0080600Y0052952D01*
X0080600Y0054551D02*
X0081000Y0054551D01*
X0085876Y0052952D02*
X0090551Y0052952D01*
X0090551Y0051354D02*
X0086281Y0051354D01*
X0086203Y0049755D02*
X0090551Y0049755D01*
X0090551Y0048157D02*
X0085626Y0048157D01*
X0075300Y0057748D02*
X0059700Y0057748D01*
X0063222Y0052952D02*
X0064378Y0052952D01*
X0064378Y0051354D02*
X0063222Y0051354D01*
X0063222Y0049755D02*
X0064378Y0049755D01*
X0069143Y0065740D02*
X0075300Y0065740D01*
X0078422Y0067339D02*
X0060068Y0067339D01*
X0060068Y0070536D02*
X0061916Y0070536D01*
X0062095Y0070488D02*
X0064116Y0070488D01*
X0064116Y0074269D01*
X0060531Y0074269D01*
X0060531Y0072051D01*
X0060654Y0071593D01*
X0060891Y0071183D01*
X0061226Y0070848D01*
X0061637Y0070611D01*
X0062095Y0070488D01*
X0060531Y0072134D02*
X0060068Y0072134D01*
X0060068Y0073733D02*
X0060531Y0073733D01*
X0060531Y0075332D02*
X0060068Y0075332D01*
X0060049Y0076930D02*
X0060551Y0076930D01*
X0064116Y0073733D02*
X0064484Y0073733D01*
X0064484Y0072134D02*
X0064116Y0072134D01*
X0064116Y0070536D02*
X0064484Y0070536D01*
X0068068Y0073733D02*
X0075483Y0073733D01*
X0076204Y0075332D02*
X0068068Y0075332D01*
X0068049Y0076930D02*
X0077816Y0076930D01*
X0075626Y0078529D02*
X0068068Y0078529D01*
X0080600Y0076930D02*
X0081000Y0076930D01*
X0081000Y0077800D02*
X0081000Y0072500D01*
X0086300Y0072500D01*
X0086300Y0072733D01*
X0086165Y0073588D01*
X0085897Y0074411D01*
X0085504Y0075183D01*
X0084995Y0075883D01*
X0084383Y0076495D01*
X0083683Y0077004D01*
X0082911Y0077397D01*
X0082088Y0077665D01*
X0081233Y0077800D01*
X0081000Y0077800D01*
X0083784Y0076930D02*
X0090551Y0076930D01*
X0090551Y0075332D02*
X0085396Y0075332D01*
X0086117Y0073733D02*
X0090551Y0073733D01*
X0090551Y0078529D02*
X0085974Y0078529D01*
X0086300Y0080127D02*
X0090551Y0080127D01*
X0090551Y0081726D02*
X0086300Y0081726D01*
X0086300Y0083324D02*
X0090551Y0083324D01*
X0090551Y0084923D02*
X0086300Y0084923D01*
X0086300Y0086521D02*
X0090551Y0086521D01*
X0081000Y0075332D02*
X0080600Y0075332D01*
X0080600Y0073733D02*
X0081000Y0073733D01*
X0029413Y0048157D02*
X0003600Y0048157D01*
X0013600Y0051354D02*
X0014000Y0051354D01*
X0014000Y0052952D02*
X0013600Y0052952D01*
X0013600Y0054551D02*
X0014000Y0054551D01*
X0014000Y0056149D02*
X0013600Y0056149D01*
X0016909Y0072134D02*
X0020026Y0072134D01*
X0018483Y0073733D02*
X0021625Y0073733D01*
X0023223Y0075332D02*
X0019145Y0075332D01*
X0019300Y0076930D02*
X0024822Y0076930D01*
X0025000Y0078529D02*
X0019037Y0078529D01*
X0018251Y0080127D02*
X0025000Y0080127D01*
X0025080Y0081726D02*
X0016281Y0081726D01*
D19*
X0029200Y0076500D02*
X0019500Y0066800D01*
X0014800Y0066800D01*
X0038300Y0068800D02*
X0038300Y0076500D01*
X0038300Y0082800D01*
X0039800Y0084300D01*
X0053146Y0084300D01*
X0056300Y0081146D01*
X0064300Y0081146D01*
X0066454Y0083300D01*
X0080800Y0083300D01*
X0063800Y0062493D02*
X0064493Y0061800D01*
X0080800Y0061800D01*
X0056300Y0061954D02*
X0056300Y0054753D01*
X0050800Y0056300D02*
X0050800Y0052800D01*
X0054753Y0048847D01*
X0056300Y0048847D01*
X0050800Y0056300D02*
X0038300Y0068800D01*
M02*
