G75*
%MOIN*%
%OFA0B0*%
%FSLAX25Y25*%
%IPPOS*%
%LPD*%
%AMOC8*
5,1,8,0,0,1.08239X$1,22.5*
%
%ADD10C,0.00000*%
%ADD11C,0.00500*%
%ADD12C,0.00300*%
%ADD13C,0.02200*%
%ADD14C,0.00800*%
%ADD15R,0.03000X0.01800*%
%ADD16C,0.00100*%
D10*
X0001800Y0045107D02*
X0001800Y0088414D01*
X0092351Y0088414D01*
X0092351Y0045107D01*
X0001800Y0045107D01*
D11*
X0002300Y0051800D02*
X0002300Y0081800D01*
X0024300Y0081800D01*
X0024300Y0076800D01*
X0019300Y0076800D01*
X0019300Y0056800D01*
X0024300Y0056800D01*
X0024300Y0051800D01*
X0002300Y0051800D01*
X0024300Y0056800D02*
X0024300Y0076800D01*
X0025050Y0053801D02*
X0027385Y0053801D01*
X0070800Y0051300D02*
X0070800Y0046300D01*
X0092800Y0046300D01*
X0092800Y0066300D01*
X0070800Y0066300D01*
X0070800Y0061300D01*
X0075800Y0061300D01*
X0075800Y0051300D01*
X0070800Y0051300D01*
X0070800Y0061300D01*
X0070800Y0067800D02*
X0070800Y0072800D01*
X0075800Y0072800D01*
X0075800Y0082800D01*
X0070800Y0082800D01*
X0070800Y0087800D01*
X0092800Y0087800D01*
X0092800Y0067800D01*
X0070800Y0067800D01*
X0070800Y0072800D02*
X0070800Y0082800D01*
D12*
X0070150Y0082745D02*
X0067248Y0082745D01*
X0068215Y0081741D02*
X0068215Y0081257D01*
X0069183Y0080290D01*
X0070150Y0080290D02*
X0068215Y0080290D01*
X0068699Y0079278D02*
X0070150Y0079278D01*
X0070150Y0077827D01*
X0069666Y0077343D01*
X0069183Y0077827D01*
X0069183Y0079278D01*
X0068699Y0079278D02*
X0068215Y0078794D01*
X0068215Y0077827D01*
X0068699Y0076331D02*
X0069666Y0076331D01*
X0070150Y0075848D01*
X0070150Y0074397D01*
X0071117Y0074397D02*
X0068215Y0074397D01*
X0068215Y0075848D01*
X0068699Y0076331D01*
X0069183Y0073385D02*
X0069666Y0073385D01*
X0070150Y0072901D01*
X0070150Y0071934D01*
X0069666Y0071450D01*
X0068699Y0071934D02*
X0068699Y0072901D01*
X0069183Y0073385D01*
X0067731Y0073385D02*
X0067248Y0072901D01*
X0067248Y0071934D01*
X0067731Y0071450D01*
X0068215Y0071450D01*
X0068699Y0071934D01*
X0065550Y0070291D02*
X0065550Y0069590D01*
X0065200Y0069240D01*
X0065200Y0068431D02*
X0065550Y0068081D01*
X0065550Y0067381D01*
X0065200Y0067030D01*
X0063799Y0067030D01*
X0063448Y0067381D01*
X0063448Y0068081D01*
X0063799Y0068431D01*
X0063799Y0069240D02*
X0063448Y0069590D01*
X0063448Y0070291D01*
X0063799Y0070641D01*
X0064149Y0070641D01*
X0064499Y0070291D01*
X0064849Y0070641D01*
X0065200Y0070641D01*
X0065550Y0070291D01*
X0064499Y0070291D02*
X0064499Y0069941D01*
X0062650Y0069860D02*
X0060548Y0069860D01*
X0061249Y0069160D01*
X0060899Y0068351D02*
X0060548Y0068001D01*
X0060548Y0066950D01*
X0062650Y0066950D01*
X0062650Y0068001D01*
X0062300Y0068351D01*
X0060899Y0068351D01*
X0062650Y0069160D02*
X0062650Y0070561D01*
X0066651Y0067201D02*
X0066651Y0065800D01*
X0067351Y0066501D02*
X0065950Y0066501D01*
X0067248Y0067046D02*
X0070150Y0067046D01*
X0070150Y0065595D01*
X0069666Y0065111D01*
X0068699Y0065111D01*
X0068215Y0065595D01*
X0068215Y0067046D01*
X0070150Y0064114D02*
X0070150Y0063147D01*
X0070150Y0063631D02*
X0068215Y0063631D01*
X0068215Y0063147D01*
X0067248Y0063631D02*
X0066764Y0063631D01*
X0068699Y0062135D02*
X0068215Y0061652D01*
X0068215Y0060684D01*
X0068699Y0060200D01*
X0069666Y0060200D01*
X0070150Y0060684D01*
X0070150Y0061652D01*
X0069666Y0062135D01*
X0068699Y0062135D01*
X0068699Y0059189D02*
X0070150Y0059189D01*
X0068699Y0059189D02*
X0068215Y0058705D01*
X0068215Y0057254D01*
X0070150Y0057254D01*
X0069183Y0056242D02*
X0069183Y0054307D01*
X0069666Y0054307D02*
X0068699Y0054307D01*
X0068215Y0054791D01*
X0068215Y0055759D01*
X0068699Y0056242D01*
X0069183Y0056242D01*
X0070150Y0055759D02*
X0070150Y0054791D01*
X0069666Y0054307D01*
X0070150Y0053311D02*
X0070150Y0052343D01*
X0070150Y0052827D02*
X0067248Y0052827D01*
X0067248Y0052343D01*
X0068699Y0051331D02*
X0068215Y0050848D01*
X0068215Y0049880D01*
X0068699Y0049397D01*
X0069666Y0049397D01*
X0070150Y0049880D01*
X0070150Y0050848D01*
X0069666Y0051331D01*
X0068699Y0051331D01*
X0069183Y0048385D02*
X0068699Y0047901D01*
X0068699Y0046934D01*
X0068215Y0046450D01*
X0067731Y0046450D01*
X0067248Y0046934D01*
X0067248Y0047901D01*
X0067731Y0048385D01*
X0069183Y0048385D02*
X0069666Y0048385D01*
X0070150Y0047901D01*
X0070150Y0046934D01*
X0069666Y0046450D01*
X0058561Y0057450D02*
X0057160Y0057450D01*
X0057860Y0057450D02*
X0057860Y0059552D01*
X0057160Y0058851D01*
X0056351Y0058501D02*
X0056001Y0058151D01*
X0054950Y0058151D01*
X0055651Y0058151D02*
X0056351Y0057450D01*
X0056351Y0058501D02*
X0056351Y0059201D01*
X0056001Y0059552D01*
X0054950Y0059552D01*
X0054950Y0057450D01*
X0053150Y0055526D02*
X0053150Y0054825D01*
X0052800Y0054475D01*
X0052099Y0054475D01*
X0051749Y0054825D01*
X0051749Y0055526D01*
X0052099Y0055876D01*
X0052449Y0055876D01*
X0052449Y0054475D01*
X0051749Y0053684D02*
X0051749Y0053334D01*
X0052449Y0052633D01*
X0051749Y0052633D02*
X0053150Y0052633D01*
X0053150Y0051860D02*
X0053150Y0051160D01*
X0053150Y0051510D02*
X0051749Y0051510D01*
X0051749Y0051160D01*
X0051048Y0051510D02*
X0050698Y0051510D01*
X0051048Y0050351D02*
X0051048Y0048950D01*
X0053150Y0048950D01*
X0052099Y0048950D02*
X0052099Y0049651D01*
X0059799Y0077030D02*
X0061200Y0077030D01*
X0061550Y0077381D01*
X0061550Y0078081D01*
X0061200Y0078431D01*
X0061550Y0079240D02*
X0061550Y0080641D01*
X0061550Y0079941D02*
X0059448Y0079941D01*
X0060149Y0079240D01*
X0059799Y0078431D02*
X0059448Y0078081D01*
X0059448Y0077381D01*
X0059799Y0077030D01*
X0069183Y0082745D02*
X0068215Y0084196D01*
X0069183Y0082745D02*
X0070150Y0084196D01*
X0069151Y0085800D02*
X0069151Y0087201D01*
X0069851Y0086501D02*
X0068450Y0086501D01*
D13*
X0064420Y0077800D02*
X0064180Y0077800D01*
X0056420Y0077800D02*
X0056180Y0077800D01*
D14*
X0051200Y0070800D02*
X0051200Y0057800D01*
X0025400Y0057800D01*
X0025400Y0070800D01*
X0051200Y0070800D01*
X0054489Y0052469D02*
X0056300Y0052469D01*
X0057220Y0051249D01*
X0058111Y0052469D02*
X0056300Y0052469D01*
X0056200Y0052409D02*
X0055440Y0051249D01*
D15*
X0056300Y0065300D03*
D16*
X0038172Y0045000D02*
X0037671Y0045000D01*
X0037922Y0045000D02*
X0037922Y0046501D01*
X0038172Y0046501D02*
X0037671Y0046501D01*
X0038653Y0046251D02*
X0038653Y0045250D01*
X0038904Y0045000D01*
X0039404Y0045000D01*
X0039654Y0045250D01*
X0040127Y0045000D02*
X0041128Y0045000D01*
X0040627Y0045000D02*
X0040627Y0046501D01*
X0040127Y0046001D01*
X0039654Y0046251D02*
X0039404Y0046501D01*
X0038904Y0046501D01*
X0038653Y0046251D01*
M02*
